<svg height="460" viewBox="0 0 515 460" width="515" xmlns="http://www.w3.org/2000/svg"><g fill="none" fill-rule="evenodd"><path d="m429.778521 117.921433c9.649783 65.323899-25 65.323899-197.870749 110.427914-172.8707489 45.104014-293.8359144-145.8558615-197.717079-207.7293678 96.118835-61.8735062 385.938046 31.977555 395.587828 97.3014538z" fill="#baddfa" opacity=".6" transform="translate(75.221 6.584)"/><g fill-rule="nonzero" transform="translate(247.195 3.553)"><path d="m3.45997574 28.1150876 190.00000026-27.45444027c2.186431-.31593287 4.214998 1.20040565 4.530931 3.38683689.027375.18945291.041116.38062654.041116.57204706v433.78220672c0 2.209139-1.790861 4-4 4-.185321 0-.370418-.012879-.553954-.038544l-189.99999982-26.568813c-1.97587771-.276299-3.44604637-1.966354-3.44604637-3.961456v-379.7589535c0-1.9881611 1.46022815-3.6745535 3.42795293-3.9588839z" fill="#50ca9a"/><g fill="#f5f5f5"><circle cx="13.374" cy="44.336" r="3"/><circle cx="25.514" cy="42.578" r="3.5"/><circle cx="39.057" cy="40.336" r="4"/></g><g transform="matrix(.99756405 .06975647 -.06975647 .99756405 14.505954 71.833837)"><path d="m33.4822863 87.6917023c4.3828658 0 8.5690426-1.1027839 12.4055506-3.1080212l-12.4055506-39.9406327 3.2902881-44.43402539c-1.0824846-.13826333-2.1800761-.20902301-3.2902881-.20902301-18.4917561 0-33.4822863 19.6304562-33.4822863 43.8458511 0 24.215395 14.9905302 43.8458512 33.4822863 43.8458512z" fill="#2095f2"/><path d="m64.9120841 28.6960225c-3.6515823-12.9867392-11.8628864-23.08580932-22.0916882-26.96810722l-2.6416523 34.94316022z" fill="#fcf038"/><path d="m52.9557837 79.5173135c8.4817997-7.9544734 14.008789-20.9677374 14.008789-35.6714624 0-1.3475042-.0464189-2.680811-.1372768-3.9973278l-26.6485523 4.7945251z" fill="#ff7d0a"/></g><g fill="#baddfa" transform="translate(93.384 81.953)"><path d="m1 57.187 22-3.187v14.381l-22 1.619z"/><path d="m1 41.861 22-2.861v15.323l-22 2.677z" fill-opacity=".75"/><path d="m1 27.012 22-3.012v15.157l-22 2.843z" fill-opacity=".62"/><path d="m1 11.865 22-2.865v14.983l-22 3.017z" fill-opacity=".41"/><path d="m1 2.135 22-2.135v9.019l-22 2.981z" fill-opacity=".2"/></g><g fill="#1c5888" transform="translate(156.014 63.05)"><path d="m1 72.088 27-3.088v13.933l-27 1.067z"/><path d="m1 56.861 27-2.861v15.323l-27 2.677z" fill-opacity=".93"/><path d="m1 42.012 27-3.012v15.157l-27 2.843z" fill-opacity=".81"/><path d="m1 26.865 27-2.865v14.983l-27 3.017z" fill-opacity=".65"/><path d="m1 11.865 27-2.865v14.983l-27 3.017z" fill-opacity=".5"/><path d="m1 2.135 27-2.135v9.019l-27 2.981z" fill-opacity=".35"/></g><g fill="#a759a7" transform="translate(123.7 93.831)"><path d="m1 44.087 24-3.087v13.93l-24 1.07z"/><path d="m1 28.861 24-2.861v15.323l-24 2.677z" fill-opacity=".75"/><path d="m1 14.012 24-3.012v15.157l-24 2.843z" fill-opacity=".62"/><path d="m1 2.228 24-2.228v11.654l-24 2.346z" fill-opacity=".41"/></g><g fill="#f5f5f5"><g transform="translate(22.014 362.985)"><path d="m2.29905014.34767422 48.99999996 7.4100326c.9779649.14789289 1.7009499.98843165 1.7009499 1.97751587v53.72697621l-53-8v-53.13700882c0-1.1045695.8954305-2 2-2 .1001056 0 .20006994.00751584.29905014.02248414z" fill-opacity=".7"/><path d="m63.1231052 18.1729288 70.0091308 9.7234904c.490421.0681141.85716.4848566.862376.9799582l.284207 26.9782811c.005818.5522541-.437156 1.0046608-.98941 1.0104786-.049409.0005205-.098789-.0026218-.147733-.009401l-70.2933379-9.7362307c-.4945491-.0684993-.8628013-.4912731-.8628013-.9905436v-26.9655407c0-.5522847.4477153-1 1-1 .0460203 0 .0919857.0031768.1375684.0095077z" fill-opacity=".8"/><path d="m63.9883629 51.8444927 95.7240791 21.4264935c.482487.107998.813623.5523869.779133 1.0456089l-.27824 3.9790171c-.038525.5509394-.516381.9663331-1.06732.9278076-.04674-.0032683-.093192-.0098175-.139013-.0195991l-95.792426-20.4490852c-.4872025-.1040045-.8235463-.550755-.788795-1.0477214l.346587-4.9564255c.0385254-.5509394.5163811-.966333 1.0673205-.9278075.0500325.0034986.0997309.0107563.1486744.0217116z" fill-opacity=".9" transform="matrix(.99756405 -.06975647 .06975647 .99756405 -4.299145 7.934598)"/></g><g transform="translate(24.014 271.985)"><path d="m2 0h49c1.1045695 0 2 .8954305 2 2v68.8167572c0 1.1045695-.8954305 2-2 2-.0629053 0-.1257756-.0029678-.1884012-.0088935l-49.00000005-4.6364477c-1.02699724-.0971759-1.81159875-.959522-1.81159875-1.9911065v-64.1803095c0-1.1045695.8954305-2 2-2z" fill-opacity=".7"/><g fill-opacity=".8"><path d="m62.9855368 7.01493323h70.0000002c.552285 0 1 .44771525 1 1v26.98506677c0 .5522847-.447715 1-1 1h-70.0000002c-.5522847 0-1-.4477153-1-1v-26.98506677c0-.55228475.4477153-1 1-1z"/><path d="m63.4655855 40.6372394 96.7492845 6.765369c.55094.0385255.966333.5163812.927808 1.0673206l-.555906 7.9498207c-.038525.5509394-.516381.966333-1.06732.9278076-.010075-.0007045-.020139-.0015616-.030188-.002571l-96.5442437-9.697594c-.5377831-.0540188-.9353224-.5255767-.8976198-1.0647495l.3508645-5.0175958c.0385254-.5509394.5163811-.966333 1.0673205-.9278076z" transform="matrix(.99756405 -.06975647 .06975647 .99756405 -3.145669 7.903816)"/><path d="m63.6908254 53.5906949 96.6006236 7.797327c.546322.0440975.955342.5197505.917108 1.0665146l-.555108 7.9384243c-.038526.5509394-.516382.966333-1.067321.9278075-.017123-.0011973-.034212-.0028353-.05125-.0049123l-96.3732592-11.7481108c-.5330537-.0649804-.9196207-.5393706-.875633-1.0745657l.3277447-3.9876404c.045193-.5498593.52717-.9592326 1.0770949-.9148442z" transform="matrix(.99756405 -.06975647 .06975647 .99756405 -4.08443 7.947214)"/></g></g><g transform="translate(26 180)"><path d="m1.84948466 3.86041625 48.98539624-3.69701103c1.101437-.08312733 2.0617162.74237583 2.1448436 1.8438129.0041184.05456969.0059954.10928543.0056262.16400907l-.443719 65.76519891c-.0074524 1.1045444-.9089039 1.9939131-2.0134482 1.9864608-.0208732-.0001409-.0417429-.0006085-.0626014-.0014027l-48.54167725-1.8482312c-1.07418276-.0408997-1.92390485-.9235908-1.92390485-1.9985519v-60.21995661c0-1.04618252.80626898-1.91559498 1.84948466-1.99432824z" fill-opacity=".7"/><g fill-opacity=".8"><path d="m62.5621348 6.92392869 70.3552242-5.83415157c.550396-.04564113 1.033579.36354324 1.07922.91393885.00228.02748789.003421.05505832.003421.08264056v28.96739937c0 .5308387-.414772.9691739-.944801.9984754l-70.3552251 3.8894344c-.5514427.0304853-1.0231886-.3918342-1.0536739-.9432769-.0010162-.018382-.0015246-.0367885-.0015246-.0551985v-27.02268219c0-.52024469.3988943-.9535861.9173594-.99657942z"/><path d="m63.2000225 41.5534758 97.1737965.9019105c.552261.0051257.995802.4569769.990676 1.0092379-.000187.020178-.000985.0403457-.002393.0604755l-.555778 7.9479948c-.037703.5391745-.497004.9508171-1.037073.9294628l-96.9687548-3.8341443c-.5518535-.0218202-.9815304-.4868748-.9597101-1.0387283.000399-.0100902.0009508-.0201738.0016552-.0302473l.3507362-5.0157612c.0368866-.5275029.4780768-.9351082 1.006845-.9302004z" transform="matrix(.99756405 -.06975647 .06975647 .99756405 -3.005163 7.899398)"/><path d="m63.332836 51.5867234 96.968755 3.8341443c.551853.0218202.98153.4868748.95971 1.0387283-.000399.0100902-.000951.0201738-.001655.0302473l-.555906 7.9498253c-.038526.5509394-.516381.966333-1.067321.9278076l-96.7637127-6.766378c-.5509395-.0385254-.9663331-.5163811-.9278076-1.0673205l.3508642-5.0175915c.0377027-.5391745.4970041-.9508171 1.0370731-.9294628z" transform="matrix(.99756405 -.06975647 .06975647 .99756405 -3.807362 7.927411)"/></g></g></g></g><g transform="translate(65.895 38.794)"><path d="m9.90257825 41.4544793c-5.5227151-6.5009025-9.26060419-14.4678482-8.63600073-23.3950395 1.7996565-25.72172414 37.50408788-20.06327256 44.44933898-7.081155 6.9452511 12.9821175 6.1199747 45.9123352-2.8561435 48.2326017-3.5796636.9253191-11.2054113-1.3413421-18.9666433-6.0326341l4.8715762 34.5621322h-28.7647059z" fill="#b28b67" transform="translate(64.72 37.26)"/><path d="m90.0518734 58.1597705c1.1010697 15.3812217 4.0136903 23.0718325 8.7378619 23.0718325 7.0866727 0 13.0992107-4.5115978 16.2086717-4.5115978 2.266692 0 1.76061 2.8445868.258128 4.9536457-1.239596 1.7400415-7.276325 3.4172335-7.276325 6.1148821s4.769516.6106266 4.769516 2.2105493c0 2.6464673.838236 7.6222992-3.742009 7.6222992-4.63536 0-17.925759-1.6939973-20.2033734-8.5931698-1.4699057-4.4525242-2.4203054-13.6789872-2.851199-27.6793891-.2811959-.0335087-.5673689-.0507457-.8575564-.0507457-3.9715771 0-7.1911764 3.2287158-7.1911764 7.2115385 0 2.0218969.8297321 3.8494508 2.1663599 5.158911-1.6639408 2.3552911-3.528741 4.8157082-5.6656029 7.3545387-8.0277271-4.8299471-13.9847571-18.9690131-6.1363509-32.5515767 2.1693242-6.6538868 7.0803706-10.2079778 12.8804346-11.8582563 4.6983508-1.9709 9.5756835-2.1931207 13.6928469-1.0115839 8.0707806.6942216 15.2776006 3.1621898 17.3200706 4.6278553 0 7.6625292-1.480532 9.9359791-14.1262927 9.7355829-3.1072685 1.6456542-5.4959798 4.4794685-7.9840039 8.1946841z" fill="#191847"/></g><g transform="translate(63.298 272.584)"><path d="m16.4054877 0h85.6187603c8.836556 0 16 7.163444 16 16v67.2158249c0 8.836556-7.163444 16-16 16h-85.6187603c-8.83655603 0-16.00000003-7.163444-16.00000003-16v-67.2158249c0-8.836556 7.163444-16 16.00000003-16zm10.4035733 22.4035734c-2.209139 0-4 1.790861-4 4v46.4086781c0 2.209139 1.790861 4 4 4h64.8116135c2.209139 0 4-1.790861 4-4v-46.4086781c0-2.209139-1.790861-4-4-4z" fill="#e4e4e5" transform="translate(0 34.074)"/><path d="m172.791923 121-31-78c-6.279216-13.4719086 17.931582-15.5415372 22.546331-9.2719809 10.476909 14.2338337 18.586636 76.0312459 21.708057 80.2719809z" fill="#4e5155"/><path d="m137.791923 45.8032969c-28.666667-2.3207751-47.3333336-4.2552074-56.0000002-5.8032969-23.6100004-4.2173531-36.2206181-11.5547765-32.1478008-39.28968172h43.5235774c5.7596459 1.66327725 29.8256816 11.95010752 72.1981056 30.86049072 7.623635 3.7844789 6.203864 14.9430306 4.810399 18.6192798-.056831.1499314-16.840917 19.4199019-50.352258 57.8099112l-15.032023-9 38-52c-2.518516-.5673732-4.185183-.9662743-5-1.1967031z" fill="#676a6d"/><g fill="#394046"><path d="m0 21 1-21h21c9.9576033 7 22.9576033 12.6666667 39 17v4h-38l-13-2v2z" transform="matrix(.8660254 .5 -.5 .8660254 103.836158 98.446183)"/><path d="m0 21 1-21h21c9.9576033 7 22.9576033 12.6666667 39 17v4h-38l-13-2v2z" transform="matrix(.8660254 -.5 .5 .8660254 171.280637 121.414039)"/></g></g><g transform="matrix(.99026807 .1391731 -.1391731 .99026807 56.30703 116.932869)"><path d="m125.807088 48.9545858 35.951329-16.5428705c6.236096-6.4349668 12.28063-11.3486148 18.133604-14.7409439 1.757496-.5935037 4.773909-.816192 1.634598 3.9452914-3.139312 4.7614834-6.227256 9.9110359-4.911268 11.5375987s5.012967-.258604 6.53289 2.3973306c1.013281 1.7706231-5.234717 4.0188745-18.743996 6.7447544l-26.770296 21.2768577zm59.110469 17.7193711 15.246523-8.3756332c2.139303-8.1402958 4.696579-12.2359539 7.671828-12.2869742 2.28561-1.0634715-1.694764 9.2225525 2.63803 8.3305503s14.907906-8.7570939 16.73005-7.1601831c2.695745 2.3625266.292053 9.6168524-2.540067 13.225491-5.293229 6.7445411-9.675795 9.0509707-20.507986 12.071254-5.663629 1.5791601-11.787014 4.7444505-18.370154 9.4958712z" fill="#997659"/><path d="m114.252291 40.9075631c12.028011 1.7750137 28.442302 1.7750137 47.245579-6.3641526l4.339881 16.0261575c-13.637638 9.8292485-31.730733 16.8142086-46.155752 14.1123889-11.367711-2.1291828-15.01597-16.8651512-5.429708-23.7743938z" fill="#113f63" transform="matrix(.98768834 -.15643447 .15643447 .98768834 -6.116557 22.09177)"/><g fill="#1c5888"><path d="m59.1087596 150.286266c18.0722703-3.557822 69.1155854.675112 69.0052824-1.557285-2.075248-42.000511-3.542794-95.4757607-6.93432-139.04868114h-27.7467493c-3.0425906 0-21.2558009 50.17679664-23.7414829 65.39661574s-10.1894875 37.0232674-10.5827302 75.2093504z" transform="matrix(.9781476 -.20791169 .20791169 .9781476 -14.583776 21.210642)"/><path d="m109.526342 10.7160711c-1.851815 37.0836483 3.505209 57.783254 16.071074 62.0988172s34.959764.7404311 67.181699-10.7253964c7.53574 15.590098 11.019324 26.7046423 10.450751 33.3436327-107.349386 56.0751684-151.5073238-15.841937-117.8163494-84.7170535z" transform="matrix(.98480775 -.17364818 .17364818 .98480775 -8.853098 25.062624)"/></g></g><g opacity=".7" transform="translate(0 264.584)"><g fill="#60edb3"><path d="m37.0535464 52.419246c-6.3305896.3351064-13.7309848 4.8286733-13.6834044 11.7432515.0347095 5.0240347.7069747 9.9666033.4737086 15.0112936-.1867681 4.0317755-1.0634528 7.9754163-2.4252929 11.7732261-1.3094914 3.651995-4.472725 6.9760419-4.9860374 10.7844048-.3272173 2.426622.3449841 5.721155 1.3824609 7.952097 1.2616494 2.712456.7249145 2.54401-.9514869 5.10744-3.28494 5.023544-6.1820674 10.125466-8.00260947 15.904257-2.62243364 8.323535-3.91230657 17.866274-1.71270677 26.444549.27965283 1.089342.89060572 5.039656 2.44339958 5.157058 1.73428926.131444.69991666-2.055832.53196706-2.77985-1.07092088-4.619757-2.01539332-8.657026-1.81663386-13.484162.767142-18.624693 12.65492156-32.092062 19.58637946-48.5593431.3866131-.8522727 1.1799933-2.868334 1.7387752-4.202107.8821852-2.1057318 1.5812546-6.0096099 2.9036219-7.6412304 2.4903938-3.0737624.5197727 2.7865104.0897354 3.9109202-.5436539 1.4222769-1.1470269 2.9365645-1.7252022 4.19353-2.6380429 5.8220439-5.5967832 12.1856253-8.322464 18.1877923 14.7019271 1.762331 22.999566-16.561922 25.6598722-28.3152568 2.1919124-9.6834598 3.6926494-31.94262-11.1840824-31.1878702" transform="matrix(-.9945219 .10452846 .10452846 .9945219 44.272822 -2.32024)"/><path d="m97.7549681 36.2264746c-10.5833915.8397097-17.3776965 7.8232371-20.5404684 17.5909626-1.704621 5.2638987-1.9000031 10.6714576-2.8472748 16.0809685-1.4250023 8.1386651-4.4910582 14.306296-10.4831656 20.1046264-1.8559348 1.7957531-3.2236095 3.639523-4.1958401 5.6121187-1.9300319 1.9694726-3.6100839 4.1981583-4.8443839 6.9230182-1.5767062 3.479857-2.0228481 7.654983-.2024018 11.1243.4894302.93262 1.7104708 2.804888 2.9759695 3.655528-4.7379182 10.090571-7.3430127 21.14187-7.0493546 32.179114.1774428 6.662634.5026897 13.328001.8821443 19.982437.1021759 1.786775.6840323 4.737275 1.5579869 1.74071.7998576-2.740866-.2031818-7.043646-.295998-9.907092-.4516017-13.949097-.8376861-26.632188 4.9044414-39.664671.6021357-1.365943 1.2405398-2.720956 1.9054629-4.065038.0389984-.022642.075267-.049969.1119255-.076515.025349.019519.048358.0406.073707.059728.0425083-.075734.1006159-.165912.1684732-.26663.1907023-.196752.3572255-.445425.5155591-.722986.5093194-.705809 1.085716-1.534978 1.0888359-1.988992 0-.003513-.0019499-.008978-.0019499-.012492 3.5547061-5.802624 7.6261413-11.285527 11.7849329-16.6610745-.0311987.0390381 4.5109474-6.1453793 3.8085858-2.7252505-.3385063 1.648189-3.679501 4.786853-5.0288464 6.532637-2.9849392 3.883902-6.4901173 8.805046-9.4029093 13.563791-.3919342.22525-.9457117 1.3312-1.3462255 2.154904-.2211211.417318-.4274227.838148-.6302145 1.204716 10.3209322 3.409979 18.3495371-3.458776 23.8241355-11.447925.0066297-.00937.0124795-.019129.0187192-.028498 1.6660126-2.207605 3.3725835-4.399595 5.5046272-6.144599 3.557046-2.9118523 7.3664118-3.4255939 11.5603024-4.8586829 11.437067-3.9077147 16.29978-18.7300946 17.844117-29.7283012 1.74245-12.4078728-6.780655-31.4342667-21.6608929-30.2108123"/><path d="m86.7563836 3.8404845c-12.329798 9.6832607-19.708707 24.4805508-25.8750941 38.4997674-6.8871244 15.6580617-12.2494098 31.7869415-14.7482769 48.7217032-1.6415498 11.1262319-3.5195115 22.2901539-4.432846 33.5055459-.3246296 3.983106-.486996 7.996056-.4100854 11.992286.0064392.328399.1810121 9.251677 1.8072804 7.406634.9248954-1.049232-.1638185-9.254166-.145158-10.592643.1065776-7.538618.9381477-15.03108 2.0322763-22.485531 1.8013356-12.2735077 3.156714-24.5455643 6.1218312-36.6094567.4424212-1.8012493.8590545-3.6998794 1.5443324-5.4265086.7279062-1.8357429.0243853-1.0886237 1.6312776-1.6300199 1.5614007-.526466 3.3491603-.1686857 4.9915184-.8735731 6.5146276-2.796444 10.8995633-11.7150478 14.1517957-17.5141392 3.7197026-6.6314936 6.432525-13.8792025 8.7971771-21.0757092 1.7366815-5.2875558 3.1911026-10.5811349 4.3575359-16.0200579.3675554-1.7141688.6294447-3.5239361 1.2090522-5.17876539.1561859-.44640582.7303972-1.1942273.7708841-1.60330739.0856316-.86578549-.3628181-1.4450749-.3036968-2.17438103-.5072178.34193834-1.0076301.69489394-1.4998041 1.05815591" transform="matrix(.99026807 -.1391731 .1391731 .99026807 -9.597416 9.750554)"/></g><path d="m17.6214144 152.10063c0 18.695758 15.1559065 33.851664 33.8516645 33.851664 18.6957581 0 33.8516646-15.155906 33.8516646-33.851664" fill="#676a6d"/><path d="m54.1892315 152.208382h-1.7887097c.1241112-2.244189.2880404-4.484453.6632089-6.703658 1.4349258-8.487421 5.9216061-20.953222 15.7619337-22.330821.3630253-.051341 1.6984119-.059964 3.3160214.034881.766647-.428369 1.6254165-.687428 2.5302473-.747 8.3780773-.617666 17.7343711 6.141388 21.7756624 13.175177 3.2578593 5.671083 2.7090275 13.117956.6967744 19.142943-1.3474875 4.033642-4.2883827 9.784676-9.1927373 9.840721-6.1359082.070154-6.4317934-7.513499-6.5504597-11.946899-.1577013-5.894086-.9024887-11.028631-5.5468704-15.046203-1.0824399-.935905-2.2655901-1.759329-3.3589598-2.682301-1.7120741-1.444617-3.6040995-2.923724-3.8246471-5.313652-.3044729-3.297224 1.5567149-3.890591 4.3984613-3.27802.484424.104251 5.3641866 2.293909 4.6416492.56319-.2205476-.528701-1.0262296-.947663-2.0430907-1.261591-2.6313479-.286102-5.7693698-.618058-6.6718585-.419746-9.7361042 2.135964-13.5267909 15.622325-14.533503 24.190873-.1086477.924883-.1965063 1.852782-.2731225 2.782106z" fill="#60edb3"/></g></g></svg>